<svg xmlns="http://www.w3.org/2000/svg" width="48" height="48" viewBox="0 0 48 48">
  <g id="whatsapp" transform="translate(-7352 -4639)">
    <g id="Path_120" data-name="Path 120" transform="translate(7352 4639)" fill="#0cc144">
      <path d="M 24 47.5 C 20.82729911804199 47.5 17.74976921081543 46.87873077392578 14.85289001464844 45.65346145629883 C 12.05459022521973 44.46987915039062 9.541350364685059 42.77537155151367 7.382989883422852 40.61700820922852 C 5.224629878997803 38.45864868164062 3.530119895935059 35.94541168212891 2.346539974212646 33.14710998535156 C 1.121269941329956 30.25023078918457 0.5 27.17270088195801 0.5 24 C 0.5 20.82729911804199 1.121269941329956 17.74976921081543 2.346539974212646 14.85289001464844 C 3.530119895935059 12.05459022521973 5.224629878997803 9.541350364685059 7.382989883422852 7.382989883422852 C 9.541350364685059 5.224629878997803 12.05459022521973 3.530119895935059 14.85289001464844 2.346539974212646 C 17.74976921081543 1.121269941329956 20.82729911804199 0.5 24 0.5 C 27.17270088195801 0.5 30.25023078918457 1.121269941329956 33.14710998535156 2.346539974212646 C 35.94541168212891 3.530119895935059 38.45864868164062 5.224629878997803 40.61700820922852 7.382989883422852 C 42.77537155151367 9.541350364685059 44.46987915039062 12.05459022521973 45.65346145629883 14.85289001464844 C 46.87873077392578 17.74976921081543 47.5 20.82729911804199 47.5 24 C 47.5 27.17270088195801 46.87873077392578 30.25023078918457 45.65346145629883 33.14710998535156 C 44.46987915039062 35.94541168212891 42.77537155151367 38.45864868164062 40.61700820922852 40.61700820922852 C 38.45864868164062 42.77537155151367 35.94541168212891 44.46987915039062 33.14710998535156 45.65346145629883 C 30.25023078918457 46.87873077392578 27.17270088195801 47.5 24 47.5 Z" stroke="none"/>
      <path d="M 24 1 C 20.89458084106445 1 17.8825798034668 1.607978820800781 15.04766845703125 2.807041168212891 C 12.3089714050293 3.965419769287109 9.849151611328125 5.623939514160156 7.736549377441406 7.736549377441406 C 5.623939514160156 9.849151611328125 3.965419769287109 12.3089714050293 2.807041168212891 15.04766845703125 C 1.607978820800781 17.8825798034668 1 20.89458084106445 1 24 C 1 27.10541915893555 1.607978820800781 30.1174201965332 2.807041168212891 32.95233154296875 C 3.965419769287109 35.6910285949707 5.623939514160156 38.15084838867188 7.736549377441406 40.26345062255859 C 9.849151611328125 42.37606048583984 12.3089714050293 44.03458023071289 15.04766845703125 45.19295883178711 C 17.8825798034668 46.39202117919922 20.89458084106445 47 24 47 C 27.10541915893555 47 30.1174201965332 46.39202117919922 32.95233154296875 45.19295883178711 C 35.6910285949707 44.03458023071289 38.15084838867188 42.37606048583984 40.26345062255859 40.26345062255859 C 42.37606048583984 38.15084838867188 44.03458023071289 35.6910285949707 45.19295883178711 32.95233154296875 C 46.39202117919922 30.1174201965332 47 27.10541915893555 47 24 C 47 20.89458084106445 46.39202117919922 17.8825798034668 45.19295883178711 15.04766845703125 C 44.03458023071289 12.3089714050293 42.37606048583984 9.849151611328125 40.26345062255859 7.736549377441406 C 38.15084838867188 5.623939514160156 35.6910285949707 3.965419769287109 32.95233154296875 2.807041168212891 C 30.1174201965332 1.607978820800781 27.10541915893555 1 24 1 M 24 0 C 37.25482940673828 0 48 10.74517059326172 48 24 C 48 37.25482940673828 37.25482940673828 48 24 48 C 10.74517059326172 48 0 37.25482940673828 0 24 C 0 10.74517059326172 10.74517059326172 0 24 0 Z" stroke="none" fill="#fff"/>
    </g>
    <g id="Group_364" data-name="Group 364" transform="translate(7362 4649)">
      <path id="Path_115" data-name="Path 115" d="M343.182,393.987a13.749,13.749,0,0,0-27.472-.251c-.006.2-.013.4-.013.6a13.539,13.539,0,0,0,1.969,7.045l-2.477,7.315,7.613-2.42a13.763,13.763,0,0,0,20.387-11.941C343.189,394.218,343.189,394.1,343.182,393.987ZM329.443,405.8a11.516,11.516,0,0,1-6.358-1.9l-4.441,1.415,1.442-4.259a11.351,11.351,0,0,1-2.2-6.723,10.6,10.6,0,0,1,.058-1.114,11.562,11.562,0,0,1,23.019.219c.026.3.039.593.039.9A11.524,11.524,0,0,1,329.443,405.8Z" transform="translate(-315.189 -380.695)" fill="#fff" fill-rule="evenodd"/>
      <path id="Path_116" data-name="Path 116" d="M335.3,396.737c-.334-.164-1.952-.957-2.255-1.064s-.522-.164-.743.163-.856,1.064-1.045,1.278-.384.246-.718.082a8.943,8.943,0,0,1-2.651-1.624,9.766,9.766,0,0,1-1.832-2.261c-.189-.327-.019-.5.145-.667s.327-.384.5-.573l.12-.158a3.821,3.821,0,0,0,.208-.39.593.593,0,0,0-.025-.573c-.082-.164-.743-1.776-1.021-2.429s-.547-.542-.743-.542-.409-.031-.629-.031a1.216,1.216,0,0,0-.882.409,3.662,3.662,0,0,0-1.152,2.732,4.145,4.145,0,0,0,.17,1.114,7.461,7.461,0,0,0,1.177,2.267c.164.214,2.28,3.626,5.63,4.942s3.356.869,3.96.812a3.291,3.291,0,0,0,2.223-1.555,2.708,2.708,0,0,0,.2-1.556C335.848,396.982,335.628,396.9,335.3,396.737Z" transform="translate(-314.871 -380.405)" fill="#fff" fill-rule="evenodd"/>
    </g>
  </g>
</svg>
